<svg xmlns="http://www.w3.org/2000/svg" xml:space="preserve" style="enable-background:new 0 0 80 80" viewBox="0 0 80 80"><style>.st1{fill:none;stroke:black;stroke-width:2;stroke-linecap:round;stroke-linejoin:round;stroke-miterlimit:10}</style><g id="Layer_2"><path d="m53.48 43.83-6.4-2.78" class="st1"/><circle cx="45.25" cy="40.25" r="2" class="st1"/><circle cx="37.312" cy="44.062" r="1.938" class="st1"/><path d="m39.1 43.08 4.33-2h.01M45.08 38.26l-.52-6.03" class="st1"/><circle cx="56.125" cy="45.125" r="2.875" class="st1"/><circle cx="44.25" cy="28.125" r="4.125" class="st1"/><path d="M21 57h54V19a4 4 0 0 0-4-4H19a4 4 0 0 0-4 4v15M21 63h54a4 4 0 0 0 4-4v-2H54h0a2 2 0 0 1-2 2H38a2 2 0 0 1-2-2h0-15M9.5 38h3" class="st1"/><path d="M21 66V37a3 3 0 0 0-3-3H4a3 3 0 0 0-3 3v29a3 3 0 0 0 3 3h14a3 3 0 0 0 3-3z" class="st1"/><path d="m17 49-5 5-2-2-5 5" class="st1"/><path d="M17 53v-4h-4" class="st1"/><path id="Frame_00000027572094998485181070000013511639198585946261_" d="M0 0h80v80H0z" style="opacity:.2;fill:none"/></g></svg>