<svg xmlns="http://www.w3.org/2000/svg" viewBox="0 0 80 80"><g fill="none" stroke="black" stroke-linecap="round" stroke-linejoin="round" stroke-miterlimit="10" stroke-width="2"><path d="m13 36.6 8.2 1M40 71V59M16.4 16.4l10.2 10.2M62.5 25l-6.7 4.5m-13.1-8.3.6-4.3M71 43.7l-12-1.5m4.2 19.4L54 53m-35 6.3 7-6.4M31 33h6v14h-6zm12 2h6v10h-6zm3 0v-4m-12 2v-4m12 20v-4m-12 6v-4"/><circle cx="8" cy="36" r="5"/><circle cx="10" cy="10" r="9"/><circle cx="69" cy="67" r="8"/><circle cx="70" cy="20" r="9"/><circle cx="44" cy="12" r="5"/><circle cx="40" cy="75" r="4"/><circle cx="14" cy="64" r="7"/><circle cx="74" cy="44" r="3"/></g></svg>