<svg xmlns="http://www.w3.org/2000/svg" viewBox="0 0 80 80"><path fill="none" stroke="black" stroke-linecap="round" stroke-linejoin="round" stroke-miterlimit="10" stroke-width="2" d="M40 5h16v4H40zm5 4h6v4h-6zm27.7 6 4.3 4.3M70 22l5-5m-18.7 3.4C66 24 73 33 73 44c0 13.8-11.2 25-25 25h-8"/><path fill="none" stroke="black" stroke-linecap="round" stroke-linejoin="round" stroke-miterlimit="10" stroke-width="2" d="M23 75h25c17 0 31-14 31-31S65 13 48 13 17 27 17 44c0 10.3 5 19.4 12.7 25M9 27h26.7m-8.5 14H1m29 14H7"/><path fill="none" stroke="black" stroke-linecap="round" stroke-linejoin="round" stroke-miterlimit="10" stroke-width="2" d="m49 39 3.4-19.6c-1.5-.3-3-.4-4.4-.4"/><circle cx="48" cy="44" r="5" fill="none" stroke="black" stroke-linecap="round" stroke-linejoin="round" stroke-miterlimit="10" stroke-width="2"/></svg>