<svg xmlns="http://www.w3.org/2000/svg" viewBox="0 0 80 80"><g fill="none" stroke="black" stroke-linecap="round" stroke-linejoin="round" stroke-miterlimit="10" stroke-width="2"><path d="M5 73h70c2.2 0 4-1.8 4-4V11c0-2.2-1.8-4-4-4H5c-2.2 0-4 1.8-4 4v58c0 2.2 1.8 4 4 4zM75 13h-1M70 13h-1M65 13h-1M40 65h0M79 19H1"/><path d="M35 56v3c0 3.3-2.7 6-6 6h-8c-3.3 0-6-2.7-6-6V33c0-3.3 2.7-6 6-6h8c3.3 0 6 2.7 6 6v13m10-10v-3c0-3.3 2.7-6 6-6h8c3.3 0 6 2.7 6 6v26c0 3.3-2.7 6-6 6h-8c-3.3 0-6-2.7-6-6V46M11 59l-4 4"/><path d="m61 41-4 4-8-8-7 7-11 11-8-8-4 4M73 29l-4 4M73 33v-4h-4"/></g></svg>