<svg xmlns="http://www.w3.org/2000/svg" xml:space="preserve" id="Слой_1" x="0" y="0" style="enable-background:new 0 0 52.6 80" version="1.1" viewBox="0 0 52.6 80"><style>.st0{fill:none;stroke:#1378bf;stroke-width:2;stroke-linecap:round;stroke-linejoin:round;stroke-miterlimit:10}</style><path d="M1.6 17.6s11.7 15.8 10.6 31.8c-1.1 16.2-10.5 25-10.5 25" class="st0"/><path d="M2.3 74h41.6s-11.2-8.5-10-26.2C35 31.2 51.2 12.6 51.2 12.6l-4.8.8S37 23.6 21.6 23.6c-9 0-19.9-6.4-19.9-6.4" class="st0"/><circle cx="21.8" cy="10.5" r="9.5" class="st0"/><path d="M18.3 61h8M15.3 64h14M1.6 17.6s24.8 21.9 45.8-.2M1.6 74.7 3.5 79h38l2.8-4.6" class="st0"/></svg>