<svg xmlns="http://www.w3.org/2000/svg" xml:space="preserve" id="Слой_1" x="0" y="0" style="enable-background:new 0 0 43.1 80" version="1.1" viewBox="0 0 43.1 80"><style>.st0{fill:none;stroke:#1378bf;stroke-width:2;stroke-linecap:round;stroke-linejoin:round;stroke-miterlimit:10}</style><path d="M17.5 26.2c-4.9-1.8-8.4-6.5-8.4-12 0-7 5.7-12.7 12.7-12.7s12.7 5.7 12.7 12.7c0 5.7-3.8 10.5-8.9 12.1" class="st0"/><path d="m32.5 2 .4-1c5 3.4 8.4 9.2 8.4 15.7 0 8-5.7 14.3-12.8 16.8M22.7 34.7c-12.9 0-20.1-7.5-20.1-18 0-6.5 3.2-12.2 8.2-15.6l.5.9M1.6 72.2h35.8V79H1.6zM25.5 72.2h-7.4M31.8 72.2c2.7-4.5 4.3-10.6 4.3-17.2 0-9-3.1-17-7.7-21.5" class="st0"/><path d="M17.7 72.2c14-7.8 16.4-27.3 5-37.5M25.6 26.4 23 12.9h-2.7l-2.8 13.3" class="st0"/></svg>